<svg xmlns="http://www.w3.org/2000/svg" xmlns:xlink="http://www.w3.org/1999/xlink" version="1.1" class="marks" width="832" height="392" viewBox="0 0 832 392"><rect width="832" height="392" fill="white"/><g fill="none" stroke-miterlimit="10" transform="translate(77,5)"><g class="mark-group role-frame root" role="graphics-object" aria-roledescription="group mark container"><g transform="translate(0,0)"><path class="background" aria-hidden="true" d="M0.5,0.5h750v350h-750Z" stroke="#ddd"/><g><g class="mark-group role-axis" role="graphics-symbol" aria-roledescription="axis" aria-label="X-axis for a linear scale with values from 0 to 4,500"><g transform="translate(0.5,350.5)"><path class="background" aria-hidden="true" d="M0,0h0v0h0Z" pointer-events="none"/><g><g class="mark-rule role-axis-grid" pointer-events="none"><line transform="translate(0,0)" x2="0" y2="-350" stroke="#ddd" stroke-width="1" opacity="1"/><line transform="translate(33,0)" x2="0" y2="-350" stroke="#ddd" stroke-width="1" opacity="1"/><line transform="translate(67,0)" x2="0" y2="-350" stroke="#ddd" stroke-width="1" opacity="1"/><line transform="translate(100,0)" x2="0" y2="-350" stroke="#ddd" stroke-width="1" opacity="1"/><line transform="translate(133,0)" x2="0" y2="-350" stroke="#ddd" stroke-width="1" opacity="1"/><line transform="translate(167,0)" x2="0" y2="-350" stroke="#ddd" stroke-width="1" opacity="1"/><line transform="translate(200,0)" x2="0" y2="-350" stroke="#ddd" stroke-width="1" opacity="1"/><line transform="translate(233,0)" x2="0" y2="-350" stroke="#ddd" stroke-width="1" opacity="1"/><line transform="translate(267,0)" x2="0" y2="-350" stroke="#ddd" stroke-width="1" opacity="1"/><line transform="translate(300,0)" x2="0" y2="-350" stroke="#ddd" stroke-width="1" opacity="1"/><line transform="translate(333,0)" x2="0" y2="-350" stroke="#ddd" stroke-width="1" opacity="1"/><line transform="translate(367,0)" x2="0" y2="-350" stroke="#ddd" stroke-width="1" opacity="1"/><line transform="translate(400,0)" x2="0" y2="-350" stroke="#ddd" stroke-width="1" opacity="1"/><line transform="translate(433,0)" x2="0" y2="-350" stroke="#ddd" stroke-width="1" opacity="1"/><line transform="translate(467,0)" x2="0" y2="-350" stroke="#ddd" stroke-width="1" opacity="1"/><line transform="translate(500,0)" x2="0" y2="-350" stroke="#ddd" stroke-width="1" opacity="1"/><line transform="translate(533,0)" x2="0" y2="-350" stroke="#ddd" stroke-width="1" opacity="1"/><line transform="translate(567,0)" x2="0" y2="-350" stroke="#ddd" stroke-width="1" opacity="1"/><line transform="translate(600,0)" x2="0" y2="-350" stroke="#ddd" stroke-width="1" opacity="1"/><line transform="translate(633,0)" x2="0" y2="-350" stroke="#ddd" stroke-width="1" opacity="1"/><line transform="translate(667,0)" x2="0" y2="-350" stroke="#ddd" stroke-width="1" opacity="1"/><line transform="translate(700,0)" x2="0" y2="-350" stroke="#ddd" stroke-width="1" opacity="1"/><line transform="translate(733,0)" x2="0" y2="-350" stroke="#ddd" stroke-width="1" opacity="1"/></g></g><path class="foreground" aria-hidden="true" d="" pointer-events="none" display="none"/></g></g><g class="mark-group role-axis" role="graphics-symbol" aria-roledescription="axis" aria-label="X-axis titled 'Distribution' for a linear scale with values from 0 to 4,500"><g transform="translate(0.5,350.5)"><path class="background" aria-hidden="true" d="M0,0h0v0h0Z" pointer-events="none"/><g><g class="mark-rule role-axis-tick" pointer-events="none"><line transform="translate(0,0)" x2="0" y2="5" stroke="#888" stroke-width="1" opacity="1"/><line transform="translate(33,0)" x2="0" y2="5" stroke="#888" stroke-width="1" opacity="1"/><line transform="translate(67,0)" x2="0" y2="5" stroke="#888" stroke-width="1" opacity="1"/><line transform="translate(100,0)" x2="0" y2="5" stroke="#888" stroke-width="1" opacity="1"/><line transform="translate(133,0)" x2="0" y2="5" stroke="#888" stroke-width="1" opacity="1"/><line transform="translate(167,0)" x2="0" y2="5" stroke="#888" stroke-width="1" opacity="1"/><line transform="translate(200,0)" x2="0" y2="5" stroke="#888" stroke-width="1" opacity="1"/><line transform="translate(233,0)" x2="0" y2="5" stroke="#888" stroke-width="1" opacity="1"/><line transform="translate(267,0)" x2="0" y2="5" stroke="#888" stroke-width="1" opacity="1"/><line transform="translate(300,0)" x2="0" y2="5" stroke="#888" stroke-width="1" opacity="1"/><line transform="translate(333,0)" x2="0" y2="5" stroke="#888" stroke-width="1" opacity="1"/><line transform="translate(367,0)" x2="0" y2="5" stroke="#888" stroke-width="1" opacity="1"/><line transform="translate(400,0)" x2="0" y2="5" stroke="#888" stroke-width="1" opacity="1"/><line transform="translate(433,0)" x2="0" y2="5" stroke="#888" stroke-width="1" opacity="1"/><line transform="translate(467,0)" x2="0" y2="5" stroke="#888" stroke-width="1" opacity="1"/><line transform="translate(500,0)" x2="0" y2="5" stroke="#888" stroke-width="1" opacity="1"/><line transform="translate(533,0)" x2="0" y2="5" stroke="#888" stroke-width="1" opacity="1"/><line transform="translate(567,0)" x2="0" y2="5" stroke="#888" stroke-width="1" opacity="1"/><line transform="translate(600,0)" x2="0" y2="5" stroke="#888" stroke-width="1" opacity="1"/><line transform="translate(633,0)" x2="0" y2="5" stroke="#888" stroke-width="1" opacity="1"/><line transform="translate(667,0)" x2="0" y2="5" stroke="#888" stroke-width="1" opacity="1"/><line transform="translate(700,0)" x2="0" y2="5" stroke="#888" stroke-width="1" opacity="1"/><line transform="translate(733,0)" x2="0" y2="5" stroke="#888" stroke-width="1" opacity="1"/></g><g class="mark-text role-axis-label" pointer-events="none"><text text-anchor="start" transform="translate(0,15)" font-family="sans-serif" font-size="10px" fill="#000" opacity="1">0</text><text text-anchor="middle" transform="translate(33.333333333333336,15)" font-family="sans-serif" font-size="10px" fill="#000" opacity="1">200</text><text text-anchor="middle" transform="translate(66.66666666666667,15)" font-family="sans-serif" font-size="10px" fill="#000" opacity="1">400</text><text text-anchor="middle" transform="translate(100,15)" font-family="sans-serif" font-size="10px" fill="#000" opacity="1">600</text><text text-anchor="middle" transform="translate(133.33333333333334,15)" font-family="sans-serif" font-size="10px" fill="#000" opacity="1">800</text><text text-anchor="middle" transform="translate(166.66666666666666,15)" font-family="sans-serif" font-size="10px" fill="#000" opacity="1">1,000</text><text text-anchor="middle" transform="translate(200,15)" font-family="sans-serif" font-size="10px" fill="#000" opacity="1">1,200</text><text text-anchor="middle" transform="translate(233.33333333333334,15)" font-family="sans-serif" font-size="10px" fill="#000" opacity="1">1,400</text><text text-anchor="middle" transform="translate(266.6666666666667,15)" font-family="sans-serif" font-size="10px" fill="#000" opacity="1">1,600</text><text text-anchor="middle" transform="translate(300,15)" font-family="sans-serif" font-size="10px" fill="#000" opacity="1">1,800</text><text text-anchor="middle" transform="translate(333.3333333333333,15)" font-family="sans-serif" font-size="10px" fill="#000" opacity="1">2,000</text><text text-anchor="middle" transform="translate(366.66666666666663,15)" font-family="sans-serif" font-size="10px" fill="#000" opacity="1">2,200</text><text text-anchor="middle" transform="translate(400,15)" font-family="sans-serif" font-size="10px" fill="#000" opacity="1">2,400</text><text text-anchor="middle" transform="translate(433.3333333333333,15)" font-family="sans-serif" font-size="10px" fill="#000" opacity="1">2,600</text><text text-anchor="middle" transform="translate(466.6666666666667,15)" font-family="sans-serif" font-size="10px" fill="#000" opacity="1">2,800</text><text text-anchor="middle" transform="translate(500,15)" font-family="sans-serif" font-size="10px" fill="#000" opacity="1">3,000</text><text text-anchor="middle" transform="translate(533.3333333333334,15)" font-family="sans-serif" font-size="10px" fill="#000" opacity="1">3,200</text><text text-anchor="middle" transform="translate(566.6666666666666,15)" font-family="sans-serif" font-size="10px" fill="#000" opacity="1">3,400</text><text text-anchor="middle" transform="translate(600,15)" font-family="sans-serif" font-size="10px" fill="#000" opacity="1">3,600</text><text text-anchor="middle" transform="translate(633.3333333333334,15)" font-family="sans-serif" font-size="10px" fill="#000" opacity="1">3,800</text><text text-anchor="middle" transform="translate(666.6666666666666,15)" font-family="sans-serif" font-size="10px" fill="#000" opacity="1">4,000</text><text text-anchor="middle" transform="translate(700,15)" font-family="sans-serif" font-size="10px" fill="#000" opacity="1">4,200</text><text text-anchor="middle" transform="translate(733.3333333333333,15)" font-family="sans-serif" font-size="10px" fill="#000" opacity="1">4,400</text></g><g class="mark-rule role-axis-domain" pointer-events="none"><line transform="translate(0,0)" x2="750" y2="0" stroke="#888" stroke-width="1" opacity="1"/></g><g class="mark-text role-axis-title" pointer-events="none"><text text-anchor="middle" transform="translate(375,30)" font-family="sans-serif" font-size="11px" font-weight="bold" fill="#000" opacity="1">Distribution</text></g></g><path class="foreground" aria-hidden="true" d="" pointer-events="none" display="none"/></g></g><g class="mark-group role-axis" role="graphics-symbol" aria-roledescription="axis" aria-label="Y-axis titled 'Object' for a discrete scale with 20 values: aeroplane, bicycle, bird, boat, bottle, ending with tvmonitor"><g transform="translate(0.5,0.5)"><path class="background" aria-hidden="true" d="M0,0h0v0h0Z" pointer-events="none"/><g><g class="mark-rule role-axis-tick" pointer-events="none"><line transform="translate(0,8)" x2="-5" y2="0" stroke="#888" stroke-width="1" opacity="1"/><line transform="translate(0,26)" x2="-5" y2="0" stroke="#888" stroke-width="1" opacity="1"/><line transform="translate(0,43)" x2="-5" y2="0" stroke="#888" stroke-width="1" opacity="1"/><line transform="translate(0,61)" x2="-5" y2="0" stroke="#888" stroke-width="1" opacity="1"/><line transform="translate(0,78)" x2="-5" y2="0" stroke="#888" stroke-width="1" opacity="1"/><line transform="translate(0,96)" x2="-5" y2="0" stroke="#888" stroke-width="1" opacity="1"/><line transform="translate(0,113)" x2="-5" y2="0" stroke="#888" stroke-width="1" opacity="1"/><line transform="translate(0,131)" x2="-5" y2="0" stroke="#888" stroke-width="1" opacity="1"/><line transform="translate(0,148)" x2="-5" y2="0" stroke="#888" stroke-width="1" opacity="1"/><line transform="translate(0,166)" x2="-5" y2="0" stroke="#888" stroke-width="1" opacity="1"/><line transform="translate(0,183)" x2="-5" y2="0" stroke="#888" stroke-width="1" opacity="1"/><line transform="translate(0,201)" x2="-5" y2="0" stroke="#888" stroke-width="1" opacity="1"/><line transform="translate(0,218)" x2="-5" y2="0" stroke="#888" stroke-width="1" opacity="1"/><line transform="translate(0,236)" x2="-5" y2="0" stroke="#888" stroke-width="1" opacity="1"/><line transform="translate(0,253)" x2="-5" y2="0" stroke="#888" stroke-width="1" opacity="1"/><line transform="translate(0,271)" x2="-5" y2="0" stroke="#888" stroke-width="1" opacity="1"/><line transform="translate(0,288)" x2="-5" y2="0" stroke="#888" stroke-width="1" opacity="1"/><line transform="translate(0,306)" x2="-5" y2="0" stroke="#888" stroke-width="1" opacity="1"/><line transform="translate(0,323)" x2="-5" y2="0" stroke="#888" stroke-width="1" opacity="1"/><line transform="translate(0,341)" x2="-5" y2="0" stroke="#888" stroke-width="1" opacity="1"/></g><g class="mark-text role-axis-label" pointer-events="none"><text text-anchor="end" transform="translate(-7,11.25)" font-family="sans-serif" font-size="10px" fill="#000" opacity="1">aeroplane</text><text text-anchor="end" transform="translate(-7,28.75)" font-family="sans-serif" font-size="10px" fill="#000" opacity="1">bicycle</text><text text-anchor="end" transform="translate(-7,46.25)" font-family="sans-serif" font-size="10px" fill="#000" opacity="1">bird</text><text text-anchor="end" transform="translate(-7,63.75)" font-family="sans-serif" font-size="10px" fill="#000" opacity="1">boat</text><text text-anchor="end" transform="translate(-7,81.25)" font-family="sans-serif" font-size="10px" fill="#000" opacity="1">bottle</text><text text-anchor="end" transform="translate(-7,98.75)" font-family="sans-serif" font-size="10px" fill="#000" opacity="1">bus</text><text text-anchor="end" transform="translate(-7,116.25)" font-family="sans-serif" font-size="10px" fill="#000" opacity="1">car</text><text text-anchor="end" transform="translate(-7,133.75)" font-family="sans-serif" font-size="10px" fill="#000" opacity="1">cat</text><text text-anchor="end" transform="translate(-7,151.25)" font-family="sans-serif" font-size="10px" fill="#000" opacity="1">chair</text><text text-anchor="end" transform="translate(-7,168.75)" font-family="sans-serif" font-size="10px" fill="#000" opacity="1">cow</text><text text-anchor="end" transform="translate(-7,186.25)" font-family="sans-serif" font-size="10px" fill="#000" opacity="1">diningtable</text><text text-anchor="end" transform="translate(-7,203.75)" font-family="sans-serif" font-size="10px" fill="#000" opacity="1">dog</text><text text-anchor="end" transform="translate(-7,221.25)" font-family="sans-serif" font-size="10px" fill="#000" opacity="1">horse</text><text text-anchor="end" transform="translate(-7,238.75)" font-family="sans-serif" font-size="10px" fill="#000" opacity="1">motorbike</text><text text-anchor="end" transform="translate(-7,256.25)" font-family="sans-serif" font-size="10px" fill="#000" opacity="1">person</text><text text-anchor="end" transform="translate(-7,273.75)" font-family="sans-serif" font-size="10px" fill="#000" opacity="1">pottedplant</text><text text-anchor="end" transform="translate(-7,291.25)" font-family="sans-serif" font-size="10px" fill="#000" opacity="1">sheep</text><text text-anchor="end" transform="translate(-7,308.75)" font-family="sans-serif" font-size="10px" fill="#000" opacity="1">sofa</text><text text-anchor="end" transform="translate(-7,326.25)" font-family="sans-serif" font-size="10px" fill="#000" opacity="1">train</text><text text-anchor="end" transform="translate(-7,343.75)" font-family="sans-serif" font-size="10px" fill="#000" opacity="1">tvmonitor</text></g><g class="mark-rule role-axis-domain" pointer-events="none"><line transform="translate(0,0)" x2="0" y2="350" stroke="#888" stroke-width="1" opacity="1"/></g><g class="mark-text role-axis-title" pointer-events="none"><text text-anchor="middle" transform="translate(-60.4873046875,175) rotate(-90) translate(0,-2)" font-family="sans-serif" font-size="11px" font-weight="bold" fill="#000" opacity="1">Object</text></g></g><path class="foreground" aria-hidden="true" d="" pointer-events="none" display="none"/></g></g><g class="mark-rect role-mark layer_0_marks" role="graphics-symbol" aria-roledescription="rect mark container"><path d="M0,0.875h112.66666666666667v15.75h-112.66666666666667Z" fill="#D7BDE2"/><path d="M0,18.375h95.16666666666666v15.75h-95.16666666666666Z" fill="#D7BDE2"/><path d="M0,35.875h128.83333333333334v15.75h-128.83333333333334Z" fill="#D7BDE2"/><path d="M0,53.375h86v15.75h-86Z" fill="#D7BDE2"/><path d="M0,70.875h128v15.75h-128Z" fill="#D7BDE2"/><path d="M0,88.375h71.66666666666667v15.75h-71.66666666666667Z" fill="#D7BDE2"/><path d="M0,105.875h204.83333333333334v15.75h-204.83333333333334Z" fill="#D7BDE2"/><path d="M0,123.375h180.66666666666669v15.75h-180.66666666666669Z" fill="#D7BDE2"/><path d="M0,140.875h216.33333333333334v15.75h-216.33333333333334Z" fill="#D7BDE2"/><path d="M0,158.375h51.5v15.75h-51.5Z" fill="#D7BDE2"/><path d="M0,175.875h106.83333333333334v15.75h-106.83333333333334Z" fill="#D7BDE2"/><path d="M0,193.375h216.16666666666666v15.75h-216.16666666666666Z" fill="#D7BDE2"/><path d="M0,210.875h80.5v15.75h-80.5Z" fill="#D7BDE2"/><path d="M0,228.375h89.33333333333333v15.75h-89.33333333333333Z" fill="#D7BDE2"/><path d="M0,245.875h729v15.75h-729Z" fill="#D7BDE2"/><path d="M0,263.375h94.66666666666667v15.75h-94.66666666666667Z" fill="#D7BDE2"/><path d="M0,280.875h54.333333333333336v15.75h-54.333333333333336Z" fill="#D7BDE2"/><path d="M0,298.375h115.83333333333333v15.75h-115.83333333333333Z" fill="#D7BDE2"/><path d="M0,315.875h91.66666666666666v15.75h-91.66666666666666Z" fill="#D7BDE2"/><path d="M0,333.375h99.16666666666666v15.75h-99.16666666666666Z" fill="#D7BDE2"/></g><g class="mark-rect role-mark layer_1_marks" role="graphics-symbol" aria-roledescription="rect mark container"><path d="M0,0.875h111.66666666666666v15.75h-111.66666666666666Z" fill="#884EA0"/><path d="M0,18.375h92v15.75h-92Z" fill="#884EA0"/><path d="M0,35.875h127.50000000000001v15.75h-127.50000000000001Z" fill="#884EA0"/><path d="M0,53.375h84.66666666666667v15.75h-84.66666666666667Z" fill="#884EA0"/><path d="M0,70.875h117.66666666666666v15.75h-117.66666666666666Z" fill="#884EA0"/><path d="M0,88.375h70.16666666666667v15.75h-70.16666666666667Z" fill="#884EA0"/><path d="M0,105.875h193.5v15.75h-193.5Z" fill="#884EA0"/><path d="M0,123.375h180v15.75h-180Z" fill="#884EA0"/><path d="M0,140.875h186.5v15.75h-186.5Z" fill="#884EA0"/><path d="M0,158.375h50.49999999999999v15.75h-50.49999999999999Z" fill="#884EA0"/><path d="M0,175.875h89.66666666666667v15.75h-89.66666666666667Z" fill="#884EA0"/><path d="M0,193.375h214.33333333333334v15.75h-214.33333333333334Z" fill="#884EA0"/><path d="M0,210.875h80.33333333333334v15.75h-80.33333333333334Z" fill="#884EA0"/><path d="M0,228.375h87.66666666666667v15.75h-87.66666666666667Z" fill="#884EA0"/><path d="M0,245.875h681.1666666666667v15.75h-681.1666666666667Z" fill="#884EA0"/><path d="M0,263.375h87.83333333333333v15.75h-87.83333333333333Z" fill="#884EA0"/><path d="M0,280.875h54.166666666666664v15.75h-54.166666666666664Z" fill="#884EA0"/><path d="M0,298.375h84.5v15.75h-84.5Z" fill="#884EA0"/><path d="M0,315.875h90.66666666666667v15.75h-90.66666666666667Z" fill="#884EA0"/><path d="M0,333.375h95.83333333333333v15.75h-95.83333333333333Z" fill="#884EA0"/></g></g><path class="foreground" aria-hidden="true" d="" display="none"/></g></g></g></svg>