<svg xmlns="http://www.w3.org/2000/svg" xmlns:xlink="http://www.w3.org/1999/xlink" version="1.1" class="marks" width="833" height="409" viewBox="0 0 833 409"><rect width="833" height="409" fill="white"/><g fill="none" stroke-miterlimit="10" transform="translate(77,22)"><g class="mark-group role-frame root" role="graphics-object" aria-roledescription="group mark container"><g transform="translate(0,0)"><path class="background" aria-hidden="true" d="M0.5,0.5h750v350h-750Z" stroke="#ddd"/><g><g class="mark-group role-axis" role="graphics-symbol" aria-roledescription="axis" aria-label="X-axis for a linear scale with values from 0 to 14"><g transform="translate(0.5,350.5)"><path class="background" aria-hidden="true" d="M0,0h0v0h0Z" pointer-events="none"/><g><g class="mark-rule role-axis-grid" pointer-events="none"><line transform="translate(0,0)" x2="0" y2="-350" stroke="#ddd" stroke-width="1" opacity="1"/><line transform="translate(54,0)" x2="0" y2="-350" stroke="#ddd" stroke-width="1" opacity="1"/><line transform="translate(107,0)" x2="0" y2="-350" stroke="#ddd" stroke-width="1" opacity="1"/><line transform="translate(161,0)" x2="0" y2="-350" stroke="#ddd" stroke-width="1" opacity="1"/><line transform="translate(214,0)" x2="0" y2="-350" stroke="#ddd" stroke-width="1" opacity="1"/><line transform="translate(268,0)" x2="0" y2="-350" stroke="#ddd" stroke-width="1" opacity="1"/><line transform="translate(321,0)" x2="0" y2="-350" stroke="#ddd" stroke-width="1" opacity="1"/><line transform="translate(375,0)" x2="0" y2="-350" stroke="#ddd" stroke-width="1" opacity="1"/><line transform="translate(429,0)" x2="0" y2="-350" stroke="#ddd" stroke-width="1" opacity="1"/><line transform="translate(482,0)" x2="0" y2="-350" stroke="#ddd" stroke-width="1" opacity="1"/><line transform="translate(536,0)" x2="0" y2="-350" stroke="#ddd" stroke-width="1" opacity="1"/><line transform="translate(589,0)" x2="0" y2="-350" stroke="#ddd" stroke-width="1" opacity="1"/><line transform="translate(643,0)" x2="0" y2="-350" stroke="#ddd" stroke-width="1" opacity="1"/><line transform="translate(696,0)" x2="0" y2="-350" stroke="#ddd" stroke-width="1" opacity="1"/><line transform="translate(750,0)" x2="0" y2="-350" stroke="#ddd" stroke-width="1" opacity="1"/></g></g><path class="foreground" aria-hidden="true" d="" pointer-events="none" display="none"/></g></g><g class="mark-group role-axis" role="graphics-symbol" aria-roledescription="axis" aria-label="X-axis titled 'Instances' for a linear scale with values from 0 to 14"><g transform="translate(0.5,350.5)"><path class="background" aria-hidden="true" d="M0,0h0v0h0Z" pointer-events="none"/><g><g class="mark-rule role-axis-tick" pointer-events="none"><line transform="translate(0,0)" x2="0" y2="5" stroke="#888" stroke-width="1" opacity="1"/><line transform="translate(54,0)" x2="0" y2="5" stroke="#888" stroke-width="1" opacity="1"/><line transform="translate(107,0)" x2="0" y2="5" stroke="#888" stroke-width="1" opacity="1"/><line transform="translate(161,0)" x2="0" y2="5" stroke="#888" stroke-width="1" opacity="1"/><line transform="translate(214,0)" x2="0" y2="5" stroke="#888" stroke-width="1" opacity="1"/><line transform="translate(268,0)" x2="0" y2="5" stroke="#888" stroke-width="1" opacity="1"/><line transform="translate(321,0)" x2="0" y2="5" stroke="#888" stroke-width="1" opacity="1"/><line transform="translate(375,0)" x2="0" y2="5" stroke="#888" stroke-width="1" opacity="1"/><line transform="translate(429,0)" x2="0" y2="5" stroke="#888" stroke-width="1" opacity="1"/><line transform="translate(482,0)" x2="0" y2="5" stroke="#888" stroke-width="1" opacity="1"/><line transform="translate(536,0)" x2="0" y2="5" stroke="#888" stroke-width="1" opacity="1"/><line transform="translate(589,0)" x2="0" y2="5" stroke="#888" stroke-width="1" opacity="1"/><line transform="translate(643,0)" x2="0" y2="5" stroke="#888" stroke-width="1" opacity="1"/><line transform="translate(696,0)" x2="0" y2="5" stroke="#888" stroke-width="1" opacity="1"/><line transform="translate(750,0)" x2="0" y2="5" stroke="#888" stroke-width="1" opacity="1"/></g><g class="mark-text role-axis-label" pointer-events="none"><text text-anchor="start" transform="translate(0,15)" font-family="sans-serif" font-size="10px" fill="#000" opacity="1">0</text><text text-anchor="middle" transform="translate(53.57142857142857,15)" font-family="sans-serif" font-size="10px" fill="#000" opacity="1">1</text><text text-anchor="middle" transform="translate(107.14285714285714,15)" font-family="sans-serif" font-size="10px" fill="#000" opacity="1">2</text><text text-anchor="middle" transform="translate(160.7142857142857,15)" font-family="sans-serif" font-size="10px" fill="#000" opacity="1">3</text><text text-anchor="middle" transform="translate(214.28571428571428,15)" font-family="sans-serif" font-size="10px" fill="#000" opacity="1">4</text><text text-anchor="middle" transform="translate(267.8571428571429,15)" font-family="sans-serif" font-size="10px" fill="#000" opacity="1">5</text><text text-anchor="middle" transform="translate(321.4285714285714,15)" font-family="sans-serif" font-size="10px" fill="#000" opacity="1">6</text><text text-anchor="middle" transform="translate(375,15)" font-family="sans-serif" font-size="10px" fill="#000" opacity="1">7</text><text text-anchor="middle" transform="translate(428.57142857142856,15)" font-family="sans-serif" font-size="10px" fill="#000" opacity="1">8</text><text text-anchor="middle" transform="translate(482.14285714285717,15)" font-family="sans-serif" font-size="10px" fill="#000" opacity="1">9</text><text text-anchor="middle" transform="translate(535.7142857142858,15)" font-family="sans-serif" font-size="10px" fill="#000" opacity="1">10</text><text text-anchor="middle" transform="translate(589.2857142857142,15)" font-family="sans-serif" font-size="10px" fill="#000" opacity="1">11</text><text text-anchor="middle" transform="translate(642.8571428571428,15)" font-family="sans-serif" font-size="10px" fill="#000" opacity="1">12</text><text text-anchor="middle" transform="translate(696.4285714285714,15)" font-family="sans-serif" font-size="10px" fill="#000" opacity="1">13</text><text text-anchor="end" transform="translate(750,15)" font-family="sans-serif" font-size="10px" fill="#000" opacity="1">14</text></g><g class="mark-rule role-axis-domain" pointer-events="none"><line transform="translate(0,0)" x2="750" y2="0" stroke="#888" stroke-width="1" opacity="1"/></g><g class="mark-text role-axis-title" pointer-events="none"><text text-anchor="middle" transform="translate(375,30)" font-family="sans-serif" font-size="11px" font-weight="bold" fill="#000" opacity="1">Instances</text></g></g><path class="foreground" aria-hidden="true" d="" pointer-events="none" display="none"/></g></g><g class="mark-group role-axis" role="graphics-symbol" aria-roledescription="axis" aria-label="Y-axis titled 'Categories' for a discrete scale with 19 values: aeroplane, bicycle, bird, boat, bottle, ending with tvmonitor"><g transform="translate(0.5,0.5)"><path class="background" aria-hidden="true" d="M0,0h0v0h0Z" pointer-events="none"/><g><g class="mark-rule role-axis-tick" pointer-events="none"><line transform="translate(0,9)" x2="-5" y2="0" stroke="#888" stroke-width="1" opacity="1"/><line transform="translate(0,27)" x2="-5" y2="0" stroke="#888" stroke-width="1" opacity="1"/><line transform="translate(0,46)" x2="-5" y2="0" stroke="#888" stroke-width="1" opacity="1"/><line transform="translate(0,64)" x2="-5" y2="0" stroke="#888" stroke-width="1" opacity="1"/><line transform="translate(0,82)" x2="-5" y2="0" stroke="#888" stroke-width="1" opacity="1"/><line transform="translate(0,101)" x2="-5" y2="0" stroke="#888" stroke-width="1" opacity="1"/><line transform="translate(0,119)" x2="-5" y2="0" stroke="#888" stroke-width="1" opacity="1"/><line transform="translate(0,138)" x2="-5" y2="0" stroke="#888" stroke-width="1" opacity="1"/><line transform="translate(0,156)" x2="-5" y2="0" stroke="#888" stroke-width="1" opacity="1"/><line transform="translate(0,175)" x2="-5" y2="0" stroke="#888" stroke-width="1" opacity="1"/><line transform="translate(0,193)" x2="-5" y2="0" stroke="#888" stroke-width="1" opacity="1"/><line transform="translate(0,211)" x2="-5" y2="0" stroke="#888" stroke-width="1" opacity="1"/><line transform="translate(0,230)" x2="-5" y2="0" stroke="#888" stroke-width="1" opacity="1"/><line transform="translate(0,248)" x2="-5" y2="0" stroke="#888" stroke-width="1" opacity="1"/><line transform="translate(0,267)" x2="-5" y2="0" stroke="#888" stroke-width="1" opacity="1"/><line transform="translate(0,285)" x2="-5" y2="0" stroke="#888" stroke-width="1" opacity="1"/><line transform="translate(0,303)" x2="-5" y2="0" stroke="#888" stroke-width="1" opacity="1"/><line transform="translate(0,322)" x2="-5" y2="0" stroke="#888" stroke-width="1" opacity="1"/><line transform="translate(0,340)" x2="-5" y2="0" stroke="#888" stroke-width="1" opacity="1"/></g><g class="mark-text role-axis-label" pointer-events="none"><text text-anchor="end" transform="translate(-7,11.710526315789487)" font-family="sans-serif" font-size="10px" fill="#000" opacity="1">aeroplane</text><text text-anchor="end" transform="translate(-7,30.131578947368435)" font-family="sans-serif" font-size="10px" fill="#000" opacity="1">bicycle</text><text text-anchor="end" transform="translate(-7,48.552631578947384)" font-family="sans-serif" font-size="10px" fill="#000" opacity="1">bird</text><text text-anchor="end" transform="translate(-7,66.97368421052633)" font-family="sans-serif" font-size="10px" fill="#000" opacity="1">boat</text><text text-anchor="end" transform="translate(-7,85.39473684210529)" font-family="sans-serif" font-size="10px" fill="#000" opacity="1">bottle</text><text text-anchor="end" transform="translate(-7,103.81578947368422)" font-family="sans-serif" font-size="10px" fill="#000" opacity="1">bus</text><text text-anchor="end" transform="translate(-7,122.23684210526318)" font-family="sans-serif" font-size="10px" fill="#000" opacity="1">car</text><text text-anchor="end" transform="translate(-7,140.6578947368421)" font-family="sans-serif" font-size="10px" fill="#000" opacity="1">cat</text><text text-anchor="end" transform="translate(-7,159.07894736842107)" font-family="sans-serif" font-size="10px" fill="#000" opacity="1">chair</text><text text-anchor="end" transform="translate(-7,177.50000000000003)" font-family="sans-serif" font-size="10px" fill="#000" opacity="1">cow</text><text text-anchor="end" transform="translate(-7,195.92105263157896)" font-family="sans-serif" font-size="10px" fill="#000" opacity="1">diningtable</text><text text-anchor="end" transform="translate(-7,214.34210526315792)" font-family="sans-serif" font-size="10px" fill="#000" opacity="1">dog</text><text text-anchor="end" transform="translate(-7,232.76315789473688)" font-family="sans-serif" font-size="10px" fill="#000" opacity="1">horse</text><text text-anchor="end" transform="translate(-7,251.1842105263158)" font-family="sans-serif" font-size="10px" fill="#000" opacity="1">motorbike</text><text text-anchor="end" transform="translate(-7,269.60526315789474)" font-family="sans-serif" font-size="10px" fill="#000" opacity="1">pottedplant</text><text text-anchor="end" transform="translate(-7,288.0263157894737)" font-family="sans-serif" font-size="10px" fill="#000" opacity="1">sheep</text><text text-anchor="end" transform="translate(-7,306.44736842105266)" font-family="sans-serif" font-size="10px" fill="#000" opacity="1">sofa</text><text text-anchor="end" transform="translate(-7,324.8684210526316)" font-family="sans-serif" font-size="10px" fill="#000" opacity="1">train</text><text text-anchor="end" transform="translate(-7,343.2894736842106)" font-family="sans-serif" font-size="10px" fill="#000" opacity="1">tvmonitor</text></g><g class="mark-rule role-axis-domain" pointer-events="none"><line transform="translate(0,0)" x2="0" y2="350" stroke="#888" stroke-width="1" opacity="1"/></g><g class="mark-text role-axis-title" pointer-events="none"><text text-anchor="middle" transform="translate(-60.4873046875,175) rotate(-90) translate(0,-2)" font-family="sans-serif" font-size="11px" font-weight="bold" fill="#000" opacity="1">Categories</text></g></g><path class="foreground" aria-hidden="true" d="" pointer-events="none" display="none"/></g></g><g class="mark-rect role-mark layer_0_marks" role="graphics-symbol" aria-roledescription="rect mark container"><path d="M0,0.9210526315789593h86.25v16.578947368421055h-86.25Z" fill="#884EA0"/><path d="M0,19.342105263157908h406.6071428571429v16.578947368421055h-406.6071428571429Z" fill="#884EA0"/><path d="M0,37.76315789473686h39.10714285714286v16.578947368421055h-39.10714285714286Z" fill="#884EA0"/><path d="M0,56.18421052631581h213.75000000000003v16.578947368421055h-213.75000000000003Z" fill="#884EA0"/><path d="M0,74.60526315789475h579.1071428571429v16.578947368421055h-579.1071428571429Z" fill="#884EA0"/><path d="M0,93.0263157894737h240v16.578947368421055h-240Z" fill="#884EA0"/><path d="M0,111.44736842105266h627.8571428571429v16.578947368421055h-627.8571428571429Z" fill="#884EA0"/><path d="M0,129.8684210526316h78.75v16.578947368421055h-78.75Z" fill="#884EA0"/><path d="M0,148.28947368421055h700.1785714285714v16.578947368421055h-700.1785714285714Z" fill="#884EA0"/><path d="M0,166.7105263157895h58.92857142857144v16.578947368421055h-58.92857142857144Z" fill="#884EA0"/><path d="M0,185.13157894736844h451.07142857142856v16.578947368421055h-451.07142857142856Z" fill="#884EA0"/><path d="M0,203.5526315789474h327.8571428571429v16.578947368421055h-327.8571428571429Z" fill="#884EA0"/><path d="M0,221.97368421052636h283.3928571428571v16.578947368421055h-283.3928571428571Z" fill="#884EA0"/><path d="M0,240.3947368421053h393.21428571428567v16.578947368421055h-393.21428571428567Z" fill="#884EA0"/><path d="M0,258.8157894736842h222.85714285714286v16.578947368421055h-222.85714285714286Z" fill="#884EA0"/><path d="M0,277.2368421052632h62.67857142857142v16.578947368421055h-62.67857142857142Z" fill="#884EA0"/><path d="M0,295.65789473684214h385.17857142857144v16.578947368421055h-385.17857142857144Z" fill="#884EA0"/><path d="M0,314.0789473684211h176.78571428571428v16.578947368421055h-176.78571428571428Z" fill="#884EA0"/><path d="M0,332.50000000000006h268.9285714285714v16.578947368421055h-268.9285714285714Z" fill="#884EA0"/></g><g class="mark-text role-mark layer_1_marks" role="graphics-object" aria-roledescription="text mark container"><text text-anchor="start" transform="translate(89.25,12.210526315789487)" font-family="sans-serif" font-size="11px" fill="#884EA0">1.61%</text><text text-anchor="start" transform="translate(409.6071428571429,30.631578947368435)" font-family="sans-serif" font-size="11px" fill="#884EA0">7.59%</text><text text-anchor="start" transform="translate(42.10714285714286,49.052631578947384)" font-family="sans-serif" font-size="11px" fill="#884EA0">0.73%</text><text text-anchor="start" transform="translate(216.75000000000003,67.47368421052633)" font-family="sans-serif" font-size="11px" fill="#884EA0">3.99%</text><text text-anchor="start" transform="translate(582.1071428571429,85.89473684210529)" font-family="sans-serif" font-size="11px" fill="#884EA0">10.81%</text><text text-anchor="start" transform="translate(243,104.31578947368422)" font-family="sans-serif" font-size="11px" fill="#884EA0">4.48%</text><text text-anchor="start" transform="translate(630.8571428571429,122.73684210526318)" font-family="sans-serif" font-size="11px" fill="#884EA0">11.72%</text><text text-anchor="start" transform="translate(81.75,141.1578947368421)" font-family="sans-serif" font-size="11px" fill="#884EA0">1.47%</text><text text-anchor="start" transform="translate(703.1785714285714,159.57894736842107)" font-family="sans-serif" font-size="11px" fill="#884EA0">13.07%</text><text text-anchor="start" transform="translate(61.92857142857144,178.00000000000003)" font-family="sans-serif" font-size="11px" fill="#884EA0">1.1%</text><text text-anchor="start" transform="translate(454.07142857142856,196.42105263157896)" font-family="sans-serif" font-size="11px" fill="#884EA0">8.42%</text><text text-anchor="start" transform="translate(330.8571428571429,214.84210526315792)" font-family="sans-serif" font-size="11px" fill="#884EA0">6.12%</text><text text-anchor="start" transform="translate(286.3928571428571,233.26315789473688)" font-family="sans-serif" font-size="11px" fill="#884EA0">5.29%</text><text text-anchor="start" transform="translate(396.21428571428567,251.6842105263158)" font-family="sans-serif" font-size="11px" fill="#884EA0">7.34%</text><text text-anchor="start" transform="translate(225.85714285714286,270.10526315789474)" font-family="sans-serif" font-size="11px" fill="#884EA0">4.16%</text><text text-anchor="start" transform="translate(65.67857142857142,288.5263157894737)" font-family="sans-serif" font-size="11px" fill="#884EA0">1.17%</text><text text-anchor="start" transform="translate(388.17857142857144,306.94736842105266)" font-family="sans-serif" font-size="11px" fill="#884EA0">7.19%</text><text text-anchor="start" transform="translate(179.78571428571428,325.3684210526316)" font-family="sans-serif" font-size="11px" fill="#884EA0">3.3%</text><text text-anchor="start" transform="translate(271.9285714285714,343.7894736842106)" font-family="sans-serif" font-size="11px" fill="#884EA0">5.02%</text></g><g class="mark-group role-title"><g transform="translate(375,-17)"><path class="background" aria-hidden="true" d="M0,0h0v0h0Z" pointer-events="none"/><g><g class="mark-text role-title-text" role="graphics-symbol" aria-roledescription="title" aria-label="Title text 'person'" pointer-events="none"><text text-anchor="middle" transform="translate(0,10)" font-family="sans-serif" font-size="13px" font-weight="bold" fill="#000" opacity="1">person</text></g></g><path class="foreground" aria-hidden="true" d="" pointer-events="none" display="none"/></g></g></g><path class="foreground" aria-hidden="true" d="" display="none"/></g></g></g></svg>